<?xml version="1.0" standalone="no"?>
<!DOCTYPE svg PUBLIC "-//W3C//DTD SVG 20010904//EN"
 "http://www.w3.org/TR/2001/REC-SVG-20010904/DTD/svg10.dtd">
<svg version="1.0" xmlns="http://www.w3.org/2000/svg"
 width="16.000000pt" height="16.000000pt" viewBox="0 0 16.000000 16.000000"
 preserveAspectRatio="xMidYMid meet">
<metadata>
Created by potrace 1.11, written by Peter Selinger 2001-2013
</metadata>
<g transform="translate(0.000000,16.000000) scale(0.002286,-0.002286)"
fill="#000000" stroke="none">
<path d="M3415 6751 c-60 -35 -104 -91 -180 -230 -66 -122 -83 -146 -110 -159
-26 -12 -52 1 -182 95 -137 100 -206 140 -283 164 -157 51 -241 -15 -290 -226
-35 -149 -95 -234 -219 -309 -131 -80 -259 -120 -669 -211 -302 -67 -362 -84
-467 -137 -159 -80 -305 -215 -305 -285 0 -35 40 -74 78 -75 27 -1 43 8 85 49
74 70 117 99 211 144 114 53 220 80 576 145 352 64 493 98 605 145 138 57 208
149 286 377 23 68 49 132 58 143 24 30 52 15 156 -83 166 -155 253 -213 338
-224 87 -12 142 37 269 238 85 137 104 158 138 158 35 0 62 -31 145 -165 38
-60 84 -129 104 -153 113 -135 240 -100 494 135 95 87 140 118 157 108 16 -10
45 -74 75 -165 31 -93 80 -197 118 -247 87 -117 230 -169 687 -253 575 -105
700 -147 843 -280 84 -78 111 -86 152 -45 40 39 33 74 -26 145 -99 120 -249
206 -450 259 -62 17 -220 53 -349 81 -396 85 -565 149 -678 258 -71 68 -104
130 -127 237 -36 161 -90 237 -181 251 -92 13 -188 -31 -402 -183 -89 -64
-141 -95 -159 -95 -36 0 -67 38 -134 164 -127 236 -234 304 -364 229z"/>
<path d="M3150 5670 c-806 -76 -1332 -390 -1631 -975 -130 -254 -208 -512
-260 -863 -36 -244 -50 -508 -57 -1031 l-7 -504 -38 -11 c-86 -25 -147 -109
-167 -227 -5 -35 -10 -119 -10 -186 l0 -123 -105 0 -105 0 0 1320 c0 1249 1
1321 18 1326 96 32 195 111 244 196 47 80 61 141 56 243 -3 82 -8 101 -41 168
-132 266 -482 328 -692 122 -62 -61 -100 -125 -120 -201 -56 -217 61 -444 270
-520 l30 -11 5 -1429 5 -1429 218 -3 217 -2 0 -123 c0 -67 5 -151 11 -187 19
-117 92 -214 170 -226 l36 -6 6 -162 c4 -124 10 -176 26 -227 41 -129 143
-251 262 -314 132 -69 1 -65 2009 -65 2008 0 1877 -4 2009 65 119 63 221 185
262 314 16 51 22 103 26 227 l6 162 36 6 c78 12 151 109 170 226 6 36 11 120
11 187 l0 123 218 2 217 3 5 1427 5 1427 71 35 c267 134 325 480 115 693 -181
185 -481 169 -647 -34 -108 -132 -124 -333 -39 -485 47 -85 140 -162 238 -197
l27 -11 0 -1320 0 -1320 -105 0 -105 0 0 123 c0 67 -5 151 -10 186 -20 118
-81 202 -167 227 l-38 11 -7 504 c-9 662 -32 960 -102 1281 -97 445 -279 805
-535 1057 -285 280 -658 443 -1181 516 -135 19 -679 29 -830 15z m-622 -1256
c162 -33 310 -113 432 -234 138 -136 214 -273 251 -453 60 -291 -26 -573 -241
-787 -177 -177 -376 -260 -622 -260 -281 1 -532 127 -698 350 -202 274 -232
625 -77 925 125 241 367 421 625 465 82 13 249 11 330 -6z m2372 -19 c232 -73
417 -228 527 -440 266 -515 -33 -1139 -603 -1260 -91 -19 -256 -19 -352 1
-167 34 -311 113 -442 244 -215 214 -301 496 -241 787 37 180 113 317 251 453
119 119 266 199 425 234 113 25 326 16 435 -19z m-1322 -1237 c79 -24 141
-113 142 -201 0 -48 -22 -117 -37 -117 -5 0 -75 67 -157 149 -164 164 -162
159 -69 180 39 9 64 7 121 -11z m-103 -238 c162 -163 161 -159 80 -181 -135
-37 -274 71 -275 214 0 48 22 117 37 117 5 0 76 -68 158 -150z m1492 -426
c239 -49 404 -229 469 -513 23 -99 20 -287 -6 -397 -55 -233 -201 -408 -398
-476 l-67 -23 -1460 0 -1460 0 -66 23 c-179 62 -308 201 -380 408 -33 98 -34
101 -34 274 0 156 3 183 23 250 59 188 171 334 308 403 136 68 60 65 1602 66
1232 1 1402 -1 1469 -15z"/>
<path d="M2202 4195 c-136 -30 -282 -124 -368 -238 -93 -122 -137 -252 -137
-402 0 -149 44 -278 136 -402 186 -250 544 -326 830 -176 92 48 211 164 260
253 61 111 82 198 81 330 -1 144 -30 242 -105 354 -154 230 -425 340 -697 281z"/>
<path d="M4483 4191 c-217 -59 -390 -222 -460 -435 -23 -70 -27 -98 -27 -201
0 -104 4 -131 28 -202 33 -101 106 -213 187 -286 209 -190 532 -221 776 -75
72 43 179 149 222 221 216 363 48 823 -351 964 -101 36 -271 42 -375 14z"/>
<path d="M2132 2329 c-172 -34 -313 -181 -363 -379 -17 -70 -18 -239 0 -310
43 -177 163 -318 311 -367 52 -17 130 -18 1420 -18 1290 0 1368 1 1420 18 148
49 268 190 311 367 18 71 17 240 0 310 -43 171 -152 303 -299 362 l-57 23
-1350 2 c-742 0 -1369 -3 -1393 -8z"/>
</g>
</svg>
