<svg width="28" height="30" viewBox="0 0 28 30" xmlns="http://www.w3.org/2000/svg" xmlns:xlink="http://www.w3.org/1999/xlink" xmlns:figma="http://www.figma.com/figma/ns"><title>flag</title><desc>Created using Figma</desc><g figma:type="canvas"><g figma:type="frame"><use xlink:href="#a" transform="translate(2.792)" fill="#ED4C5C" figma:type="vector"/><use xlink:href="#b" transform="translate(3.58 2.16)" fill="#FF8736" figma:type="vector"/><use xlink:href="#c" transform="translate(4.367 4.319)" fill="#FFCE31" figma:type="vector"/><use xlink:href="#d" transform="translate(5.155 6.479)" fill="#83BF4F" figma:type="vector"/><use xlink:href="#e" transform="translate(5.941 8.639)" fill="#275FD9" figma:type="vector"/><use xlink:href="#f" transform="translate(6.728 10.798)" fill="#9028E0" figma:type="vector"/><g figma:type="frame"><use xlink:href="#g" transform="translate(.743 5.099)" fill="#3E4347" figma:type="vector"/><use xlink:href="#h" transform="translate(1.419 6.616)" fill="#3E4347" figma:type="vector"/><use xlink:href="#i" transform="translate(1.082 6.771)" fill="#3E4347" figma:type="vector"/></g></g></g><defs><path id="a" d="M20.497 2.317C14.907 1.462 7.6 12.8.787 9.358.523 8.639.267 7.916 0 7.198 8.03 8.724 11.68-1.366 19.71.159c.266.717.52 1.44.787 2.159z"/><path id="b" d="M20.496 2.317C15.774 1.395 6.072 12.2.788 9.358.52 8.64.268 7.917 0 7.198 8.03 8.724 11.68-1.367 19.71.159c.266.717.52 1.44.786 2.159z"/><path id="c" d="M20.496 2.317C15.9 1.499 7.373 13.144.788 9.357.52 8.64.266 7.918 0 7.199 8.03 8.723 11.68-1.367 19.709.158c.267.718.521 1.44.787 2.159z"/><path id="d" d="M20.497 2.317C16.063 1.623 6.304 14.102.787 9.358.52 8.64.267 7.917 0 7.198 8.029 8.725 11.678-1.366 19.709.159c.266.718.521 1.44.788 2.159z"/><path id="e" d="M20.497 2.316C15.448 1.48 6.488 14.396.787 9.358.522 8.639.266 7.918 0 7.198 8.03 8.722 11.68-1.367 19.71.158c.266.718.521 1.44.787 2.158z"/><path id="f" d="M20.495 2.317C12.468.792 8.817 10.883.788 9.358.52 8.64.266 7.917 0 7.198 8.03 8.724 11.68-1.366 19.71.159c.265.718.52 1.441.785 2.16z"/><path id="g" d="M.99 1.98A.99.99 0 1 0 .99 0a.99.99 0 0 0 0 1.98z"/><path id="h" d="M1.169 0L0 .424l8.084 22.18h1.322L1.169 0z"/><path id="i" d="M0 0h1.98v.494H0V0z"/></defs></svg>