<svg width="30" height="29" viewBox="0 0 30 29" xmlns="http://www.w3.org/2000/svg" xmlns:xlink="http://www.w3.org/1999/xlink" xmlns:figma="http://www.figma.com/figma/ns"><title>Bot</title><desc>Created using Figma</desc><g figma:type="canvas"><g figma:type="frame"><use xlink:href="#a" transform="translate(2.886)" fill="#00B9F1" figma:type="vector"/><use xlink:href="#b" transform="translate(5.074 16.433)" fill="#89967A" figma:type="vector"/><use xlink:href="#c" transform="translate(5.074 4.833)" fill="#B6C4A7" figma:type="vector"/><g figma:type="frame"><use xlink:href="#d" transform="translate(4.107 19.817)" fill="#89967A" figma:type="vector"/><use xlink:href="#e" transform="translate(25.374 19.817)" fill="#89967A" figma:type="vector"/></g><g figma:type="frame"><use xlink:href="#f" transform="translate(2.174 8.7)" fill="#3E4347" figma:type="vector"/><use xlink:href="#g" transform="translate(26.34 8.7)" fill="#3E4347" figma:type="vector"/></g><use xlink:href="#h" transform="translate(25.857 6.767)" fill="#00B9F1" figma:type="vector"/><g figma:type="frame"><use xlink:href="#h" transform="translate(.724 6.767)" fill="#FF5263" figma:type="vector"/></g><use xlink:href="#i" transform="translate(6.282 10.392)" fill="#EFFFD9" figma:type="vector"/><use xlink:href="#j" transform="translate(7.249 11.358)" fill="#545B61" figma:type="vector"/><use xlink:href="#k" transform="translate(9.037 13.147)" fill="#FF5263" figma:type="vector"/><use xlink:href="#i" transform="translate(16.432 10.392)" fill="#EFFFD9" figma:type="vector"/><use xlink:href="#l" transform="translate(17.399 11.358)" fill="#545B61" figma:type="vector"/><use xlink:href="#k" transform="translate(19.187 13.147)" fill="#FF5263" figma:type="vector"/><use xlink:href="#m" transform="translate(6.645 18.898)" fill="#EFFFD9" figma:type="vector"/><use xlink:href="#n" transform="translate(7.49 19.623)" fill="#89967A" figma:type="vector"/><g opacity=".7" figma:type="frame"><use xlink:href="#o" transform="translate(9.037 20.155)" fill="#3E4347" opacity=".7" figma:type="vector"/><use xlink:href="#p" transform="translate(11.309 20.155)" fill="#3E4347" opacity=".7" figma:type="vector"/><use xlink:href="#q" transform="translate(13.58 20.155)" fill="#3E4347" opacity=".7" figma:type="vector"/><use xlink:href="#r" transform="translate(15.9 20.155)" fill="#3E4347" opacity=".7" figma:type="vector"/><use xlink:href="#s" transform="translate(18.172 20.155)" fill="#3E4347" opacity=".7" figma:type="vector"/><use xlink:href="#t" transform="translate(20.444 20.155)" fill="#3E4347" opacity=".7" figma:type="vector"/></g><use xlink:href="#u" transform="translate(14.257 15.95)" fill="#F5F5F5" figma:type="vector"/><use xlink:href="#v" transform="translate(15.03 15.95)" fill="#545B61" figma:type="vector"/></g></g><defs><path id="a" d="M24.711 5.655a3.111 3.111 0 0 0-1.305-1.063c-1.643-.822-5.606-.629-5.945-2.755-.435-2.755-2.851.048-3.286.048C13.643 1.885 13.4 0 12.386 0c-1.063 0-1.305 1.885-1.788 1.885-.435 0-2.852-2.803-3.287-.048-.338 2.078-4.35 1.933-5.945 2.755-.483.241-.966.58-1.305 1.063-.241.387.29.773.58.435.774-.967 2.32-1.16 3.432-1.353.918-.194 1.933-.29 2.852-.677C8.18 3.577 8.133 1.692 8.52 1.692c.29 0 1.305 1.45 2.175 1.45.773 0 1.256-1.789 1.691-1.789.435 0 .919 1.789 1.692 1.789.918 0 1.933-1.45 2.223-1.45.387 0 .339 1.885 1.595 2.368.87.387 1.885.483 2.852.677 1.112.241 2.707.386 3.432 1.353.241.338.773-.097.531-.435z"/><path id="b" d="M20.3 10.15a2.393 2.393 0 0 1-2.417 2.417H2.417A2.393 2.393 0 0 1 0 10.15V0h20.3v10.15z"/><path id="c" d="M10.15 0C2.658 0 0 4.108 0 11.6v10.15h20.3V11.6C20.3 4.108 17.642 0 10.15 0z"/><path id="d" d="M.967 5.8C.435 5.8 0 5.22 0 4.543V1.257C0 .58.435 0 .967 0v5.8z"/><path id="e" d="M0 0c.532 0 .967.58.967 1.257v3.286C.967 5.22.532 5.8 0 5.8V0z"/><path id="f" d="M.967 0H0v14.5H1.933v-.967H.967V0z"/><path id="g" d="M.967 0v13.533H0v.967H1.933V0H.967z"/><path id="h" d="M1.933 3.867a1.933 1.933 0 1 0 0-3.867 1.933 1.933 0 0 0 0 3.867z"/><path id="i" d="M3.867 7.733A3.878 3.878 0 0 1 0 3.867 3.878 3.878 0 0 1 3.867 0a3.878 3.878 0 0 1 3.866 3.867 3.878 3.878 0 0 1-3.866 3.866z"/><path id="j" d="M2.9 5.8a2.9 2.9 0 1 0 0-5.8 2.9 2.9 0 0 0 0 5.8z"/><path id="k" d="M1.112 2.223a1.112 1.112 0 1 0 0-2.223 1.112 1.112 0 0 0 0 2.223z"/><path id="l" d="M2.9 5.8A2.909 2.909 0 0 1 0 2.9C0 1.305 1.305 0 2.9 0s2.9 1.305 2.9 2.9-1.305 2.9-2.9 2.9z"/><path id="m" d="M2.683 6.283C-.894 6.283-.894 0 2.683 0h11.841c3.577 0 3.577 6.283 0 6.283H2.683z"/><path id="n" d="M2.175 4.833c-2.9 0-2.9-4.833 0-4.833h11.117c2.9 0 2.9 4.833 0 4.833H2.175z"/><path id="o" d="M.967 3.383c0 .58-.967.58-.967 0V.435c0-.58.967-.58.967 0v2.948z"/><path id="p" d="M.967 3.383c0 .58-.967.58-.967 0V.435c0-.58.967-.58.967 0v2.948z"/><path id="q" d="M.967 3.383c0 .58-.967.58-.967 0V.435c0-.58.967-.58.967 0v2.948z"/><path id="r" d="M.967 3.383c0 .58-.967.58-.967 0V.435c0-.58.967-.58.967 0v2.948z"/><path id="s" d="M.967 3.383c0 .58-.967.58-.967 0V.435c0-.58.967-.58.967 0v2.948z"/><path id="t" d="M.967 3.383c0 .58-.967.58-.967 0V.435c0-.58.967-.58.967 0v2.948z"/><path id="u" d="M.967 1.933A.967.967 0 1 0 .967 0a.967.967 0 0 0 0 1.933z"/><path id="v" d="M0 0h.387v1.933H0V0z"/></defs></svg>