<svg width="60" height="50" viewBox="0 0 60 50" xmlns="http://www.w3.org/2000/svg" xmlns:xlink="http://www.w3.org/1999/xlink" xmlns:figma="http://www.figma.com/figma/ns"><title>Email</title><desc>Created using Figma</desc><g figma:type="canvas"><g figma:type="frame"><g figma:type="frame"><use xlink:href="#a" transform="translate(.518 4.413)" fill="#C4CED6" figma:type="vector"/><use xlink:href="#b" transform="translate(33.843 1.313)" fill="#C4CED6" figma:type="vector"/></g><use xlink:href="#c" transform="translate(1.143)" fill="#DAE4EA" figma:type="vector"/><use xlink:href="#d" transform="translate(15.343 10.216)" fill="#F46767" figma:type="vector"/></g></g><defs><path id="a" d="M.625 35.3l17.2-17.1L4.525 0c-.6.8-1.1 1.9-1.2 3.1l-3.3 29c-.1 1.2.1 2.3.6 3.2z"/><path id="b" d="M24.9 0L0 22.1l19.6 25.3c1.1-.9 1.8-2.2 2-3.8L26 4.1c.3-1.7-.2-3.1-1.1-4.1z"/><path id="c" d="M32.7 23.413l24.9-22.1c-.8-.9-1.9-1.4-3.2-1.3l-48.5 3.2c-.7 0-1.5.5-2 1.2l13.2 18.2L0 39.713c.4.8 1 1.3 1.7 1.5l47.2 8.5c1.3.2 2.5-.1 3.5-.9l-19.7-25.4z"/><path id="d" d="M22.5 5.297c-1.7-8.9-10.4-4.8-11.6-.6-.5-4.5-7.4-7.6-10.3.3-3.2 8.6 7.4 17.6 8.2 19.1 1-.9 15.6-8.9 13.7-18.8z"/></defs></svg>